# xmcd
#
# Track frame offsets: 
#        150
#        20302
#        40726
#        57478
#        75941
#        97288
#        116465
#        135635
#        152973
#        170217
#        188979
#        209225
#
# Disc length: 3046 seconds
#
# Revision: 5
# Processed by: cddbd v1.5.2PL0 Copyright (c) Steve Scherf et al.
# Submitted via: ExactAudioCopy v0.99pb5
#
DISCID=ab0be40c
DTITLE=?????? - ??-????-
DYEAR=2004
DGENRE=Pop
TTITLE0=????????
TTITLE1=?????????
TTITLE2=?????????????????????
TTITLE3=????????
TTITLE4=???????
TTITLE5=???????
TTITLE6=?????
TTITLE7=Dear Love
TTITLE8=I Love So Much
TTITLE9=????
TTITLE10=???????????????????????
TTITLE11=???????????????????????
EXTD=YEAR: 2004
EXTT0=
EXTT1=
EXTT2=
EXTT3=
EXTT4=
EXTT5=
EXTT6=
EXTT7=
EXTT8=
EXTT9=
EXTT10=
EXTT11=
PLAYORDER=
